<svg xmlns="http://www.w3.org/2000/svg" width="1260" height="331" viewBox="0 0 1260 331" fill="none">
  <g style="mix-blend-mode:screen">
    <path
      d="M154.195 11.0021V209.743C154.195 212.708 155.286 215.283 157.466 217.467C159.491 219.652 162.061 220.745 165.176 220.745H231.293C234.252 220.745 236.822 221.837 239.003 224.022C241.183 226.051 242.274 228.626 242.274 231.747V319.998C242.274 322.963 241.183 325.538 239.003 327.723C236.822 329.908 234.252 331 231.293 331H10.9806C8.02127 331 5.45135 329.908 3.27081 327.723C1.09027 325.538 0 322.963 0 319.998V11.0021C0 8.03701 1.09027 5.46205 3.27081 3.27723C5.45135 1.09241 8.02127 0 10.9806 0H143.215C146.174 0 148.744 1.09241 150.925 3.27723C153.105 5.46205 154.195 8.03701 154.195 11.0021Z"
      fill="url(#paint0_linear_16_160)" />
    <path
      d="M496.705 11.0021V99.2532C496.705 102.374 495.615 105.027 493.434 107.212C491.254 109.241 488.684 110.255 485.725 110.255H414C410.418 110.255 408.627 112.128 408.627 115.873V126.876C408.627 130.621 410.418 132.494 414 132.494H463.53C466.645 132.494 469.293 133.586 471.473 135.771C473.654 137.8 474.744 140.375 474.744 143.496V187.504C474.744 190.625 473.654 193.278 471.473 195.463C469.293 197.492 466.645 198.506 463.53 198.506H414C410.418 198.506 408.627 200.379 408.627 204.124V215.127C408.627 218.872 410.418 220.745 414 220.745H485.725C488.684 220.745 491.254 221.837 493.434 224.022C495.615 226.051 496.705 228.626 496.705 231.747V319.998C496.705 322.963 495.615 325.538 493.434 327.723C491.254 329.908 488.684 331 485.725 331H265.412C262.453 331 259.883 329.908 257.702 327.723C255.522 325.538 254.432 322.963 254.432 319.998V11.0021C254.432 8.03701 255.522 5.46205 257.702 3.27723C259.883 1.09241 262.453 0 265.412 0H485.725C488.684 0 491.254 1.09241 493.434 3.27723C495.615 5.46205 496.705 8.03701 496.705 11.0021Z"
      fill="url(#paint1_linear_16_160)" />
    <path
      d="M751.137 11.0021V99.2532C751.137 102.374 750.047 105.027 747.866 107.212C745.685 109.241 743.115 110.255 740.156 110.255H668.432C664.85 110.255 663.059 112.128 663.059 115.873V126.876C663.059 130.621 664.85 132.494 668.432 132.494H717.961C721.076 132.494 723.724 133.586 725.905 135.771C728.085 137.8 729.176 140.375 729.176 143.496V187.504C729.176 190.625 728.085 193.278 725.905 195.463C723.724 197.492 721.076 198.506 717.961 198.506H668.432C664.85 198.506 663.059 200.379 663.059 204.124V215.127C663.059 218.872 664.85 220.745 668.432 220.745H740.156C743.115 220.745 745.685 221.837 747.866 224.022C750.047 226.051 751.137 228.626 751.137 231.747V319.998C751.137 322.963 750.047 325.538 747.866 327.723C745.685 329.908 743.115 331 740.156 331H519.844C516.885 331 514.315 329.908 512.134 327.723C509.954 325.538 508.863 322.963 508.863 319.998V11.0021C508.863 8.03701 509.954 5.46205 512.134 3.27723C514.315 1.09241 516.885 0 519.844 0H740.156C743.115 0 745.685 1.09241 747.866 3.27723C750.047 5.46205 751.137 8.03701 751.137 11.0021Z"
      fill="url(#paint2_linear_16_160)" />
    <path
      d="M774.275 0H994.588C997.547 0 1000.12 1.09241 1002.3 3.27723C1004.48 5.46205 1005.57 8.03701 1005.57 11.0021V99.2532C1005.57 102.374 1004.48 105.027 1002.3 107.212C1000.12 109.241 997.547 110.255 994.588 110.255H950.432C947.473 110.255 944.903 111.348 942.722 113.533C940.542 115.717 939.451 118.37 939.451 121.492V319.998C939.451 322.963 938.361 325.538 936.181 327.723C934 329.908 931.43 331 928.471 331H840.393C837.277 331 834.708 329.908 832.683 327.723C830.502 325.538 829.412 322.963 829.412 319.998V121.492C829.412 118.37 828.322 115.717 826.141 113.533C823.961 111.348 821.391 110.255 818.431 110.255H774.275C771.316 110.255 768.746 109.241 766.566 107.212C764.385 105.027 763.295 102.374 763.295 99.2532V11.0021C763.295 8.03701 764.385 5.46205 766.566 3.27723C768.746 1.09241 771.316 0 774.275 0Z"
      fill="url(#paint3_linear_16_160)" />
    <path
      d="M1260 11.0021V99.2532C1260 102.374 1258.91 105.027 1256.73 107.212C1254.55 109.241 1251.98 110.255 1249.02 110.255H1177.3C1173.71 110.255 1171.92 112.128 1171.92 115.873V126.876C1171.92 130.621 1173.71 132.494 1177.3 132.494H1226.82C1229.94 132.494 1232.59 133.586 1234.77 135.771C1236.95 137.8 1238.04 140.375 1238.04 143.496V187.504C1238.04 190.625 1236.95 193.278 1234.77 195.463C1232.59 197.492 1229.94 198.506 1226.82 198.506H1177.3C1173.71 198.506 1171.92 200.379 1171.92 204.124V215.127C1171.92 218.872 1173.71 220.745 1177.3 220.745H1249.02C1251.98 220.745 1254.55 221.837 1256.73 224.022C1258.91 226.051 1260 228.626 1260 231.747V319.998C1260 322.963 1258.91 325.538 1256.73 327.723C1254.55 329.908 1251.98 331 1249.02 331H1028.71C1025.75 331 1023.18 329.908 1021 327.723C1018.82 325.538 1017.73 322.963 1017.73 319.998V11.0021C1017.73 8.03701 1018.82 5.46205 1021 3.27723C1023.18 1.09241 1025.75 0 1028.71 0H1249.02C1251.98 0 1254.55 1.09241 1256.73 3.27723C1258.91 5.46205 1260 8.03701 1260 11.0021Z"
      fill="url(#paint4_linear_16_160)" />
  </g>
  <defs>
    <linearGradient id="paint0_linear_16_160" x1="630" y1="0" x2="630" y2="331"
      gradientUnits="userSpaceOnUse">
      <stop stop-color="white" />
      <stop offset="1" stop-color="#100F0F" stop-opacity="0" />
    </linearGradient>
    <linearGradient id="paint1_linear_16_160" x1="630" y1="0" x2="630" y2="331"
      gradientUnits="userSpaceOnUse">
      <stop stop-color="white" />
      <stop offset="1" stop-color="#100F0F" stop-opacity="0" />
    </linearGradient>
    <linearGradient id="paint2_linear_16_160" x1="630" y1="0" x2="630" y2="331"
      gradientUnits="userSpaceOnUse">
      <stop stop-color="white" />
      <stop offset="1" stop-color="#100F0F" stop-opacity="0" />
    </linearGradient>
    <linearGradient id="paint3_linear_16_160" x1="630" y1="0" x2="630" y2="331"
      gradientUnits="userSpaceOnUse">
      <stop stop-color="white" />
      <stop offset="1" stop-color="#100F0F" stop-opacity="0" />
    </linearGradient>
    <linearGradient id="paint4_linear_16_160" x1="630" y1="0" x2="630" y2="331"
      gradientUnits="userSpaceOnUse">
      <stop stop-color="white" />
      <stop offset="1" stop-color="#100F0F" stop-opacity="0" />
    </linearGradient>
  </defs>
</svg>