<svg xmlns="http://www.w3.org/2000/svg" width="38" height="40" viewBox="0 0 38 40" fill="none">
  <path d="M2.75232 39.3452C2.49762 39.7817 2.17014 40 1.76989 40C1.36964 40 1.02397 39.8181 0.732874 39.4543C0.441782 39.0541 0.423588 38.7449 0.678294 38.5266C1.58796 37.7262 2.17014 37.0532 2.42484 36.5075C2.71594 35.9254 3.11619 34.6703 3.6256 32.7422C5.48131 25.7935 8.15572 17.4807 11.6488 7.80355L13.5591 3.1105C14.1777 1.6553 14.5597 0.782171 14.7053 0.491129C14.8872 0.16371 15.051 0 15.1965 0C15.8151 0 16.1244 0.200091 16.1244 0.600272C16.1244 0.854932 16.088 1.05502 16.0152 1.20054C14.5597 4.36562 12.4675 10.0591 9.73853 18.281C7.04593 26.4666 5.2266 32.3238 4.28056 35.8527L5.86337 35.1978C8.62874 34.0337 11.3395 33.0332 13.9957 32.1965C16.6883 31.3597 19.3628 30.9413 22.019 30.9413C22.8922 30.9413 23.8747 31.0323 24.9663 31.2142C25.221 31.2142 25.3301 31.3051 25.2938 31.487C25.2574 31.6326 25.1664 31.7235 25.0209 31.7599C24.9117 31.7599 24.8389 31.7599 24.8025 31.7599C21.6733 31.869 18.7806 32.2146 16.1244 32.7967C13.4681 33.3788 10.3935 34.4156 6.90038 35.9072C5.37215 36.5621 4.4443 36.9986 4.11682 37.2169C3.82572 37.4352 3.57102 37.7626 3.3527 38.1992C3.13438 38.6357 2.93426 39.0177 2.75232 39.3452Z" fill="white"/>
  <path d="M10.8753 30.9959C10.8389 30.9959 10.8207 30.9777 10.8207 30.9413C10.2749 30.3593 10.002 29.5407 10.002 28.4857C10.002 28.0491 10.0748 27.467 10.2204 26.7394C10.4023 25.9391 10.748 24.8477 11.2574 23.4652C11.7668 22.0828 12.4036 20.8276 13.1677 19.6999C13.9682 18.5357 14.8233 17.9536 15.7329 17.9536C15.8421 17.9536 16.0422 17.99 16.3333 18.0628C16.588 18.1355 16.7881 18.281 16.9337 18.4993C17.1156 18.6812 17.2066 18.8995 17.2066 19.1542C17.2066 19.4088 17.1338 19.6635 16.9883 19.9181C16.5152 20.7185 15.9512 21.4461 15.2963 22.101C14.6777 22.7558 14.1683 23.0832 13.768 23.0832C13.6225 23.0832 13.477 23.0105 13.3314 22.8649C13.1131 22.6467 13.0039 22.5375 13.0039 22.5375C12.4217 23.92 11.9669 25.0841 11.6394 26.03C11.3483 26.9395 11.2028 27.8308 11.2028 28.704C11.2028 29.3224 11.312 29.8863 11.5303 30.3956C11.785 30.9777 12.4036 30.7231 13.386 29.6316C14.4048 28.5402 15.2963 27.4852 16.0604 26.4666C16.8245 25.4479 17.2975 24.8295 17.4795 24.6112C17.5522 25.266 17.2975 26.1573 16.7154 27.2851C16.1332 28.3765 15.3872 29.3588 14.4776 30.2319C13.5679 31.0687 12.7492 31.487 12.0215 31.487C11.5849 31.487 11.2028 31.3233 10.8753 30.9959ZM13.1677 22.2647C13.2041 22.301 13.2586 22.3192 13.3314 22.3192C13.4406 22.3192 13.5497 22.2829 13.6589 22.2101C13.8044 22.101 13.8954 22.0282 13.9318 21.9918C14.514 21.5189 14.987 20.9732 15.3509 20.3547C15.7511 19.7362 15.9512 19.2633 15.9512 18.9359C15.9512 18.6812 15.7693 18.6994 15.4054 18.9904C15.078 19.2815 14.6049 19.9 13.9864 20.8458C13.95 20.9186 13.7862 21.1733 13.4951 21.6098C13.2404 22.01 13.1313 22.2283 13.1677 22.2647Z" fill="white"/>
  <path d="M17.4846 30.9959C17.4482 30.9959 17.43 30.9777 17.43 30.9413C16.8842 30.3593 16.6113 29.5407 16.6113 28.4857C16.6113 28.0491 16.6841 27.467 16.8296 26.7394C17.0116 25.9391 17.3572 24.8477 17.8666 23.4652C18.3761 22.0828 19.0128 20.8276 19.7769 19.6999C20.5774 18.5357 21.4325 17.9536 22.3422 17.9536C22.4513 17.9536 22.6515 17.99 22.9426 18.0628C23.1973 18.1355 23.3974 18.281 23.5429 18.4993C23.7249 18.6812 23.8158 18.8995 23.8158 19.1542C23.8158 19.4088 23.7431 19.6635 23.5975 19.9181C23.1245 20.7185 22.5605 21.4461 21.9055 22.101C21.287 22.7558 20.7776 23.0832 20.3773 23.0832C20.2318 23.0832 20.0862 23.0105 19.9407 22.8649C19.7224 22.6467 19.6132 22.5375 19.6132 22.5375C19.031 23.92 18.5762 25.0841 18.2487 26.03C17.9576 26.9395 17.8121 27.8308 17.8121 28.704C17.8121 29.3224 17.9212 29.8863 18.1395 30.3956C18.3942 30.9777 19.0128 30.7231 19.9953 29.6316C21.0141 28.5402 21.9055 27.4852 22.6697 26.4666C23.4338 25.4479 23.9068 24.8295 24.0887 24.6112C24.1615 25.266 23.9068 26.1573 23.3246 27.2851C22.7424 28.3765 21.9965 29.3588 21.0868 30.2319C20.1772 31.0687 19.3585 31.487 18.6308 31.487C18.1941 31.487 17.8121 31.3233 17.4846 30.9959ZM19.7769 22.2647C19.8133 22.301 19.8679 22.3192 19.9407 22.3192C20.0498 22.3192 20.159 22.2829 20.2682 22.2101C20.4137 22.101 20.5047 22.0282 20.541 21.9918C21.1232 21.5189 21.5963 20.9732 21.9601 20.3547C22.3604 19.7362 22.5605 19.2633 22.5605 18.9359C22.5605 18.6812 22.3786 18.6994 22.0147 18.9904C21.6872 19.2815 21.2142 19.9 20.5956 20.8458C20.5592 20.9186 20.3955 21.1733 20.1044 21.6098C19.8497 22.01 19.7405 22.2283 19.7769 22.2647Z" fill="white"/>
  <path d="M26.4749 29.6316C25.4197 29.2315 24.8921 28.1401 24.8921 26.3574C24.8921 25.1933 25.074 23.8836 25.4379 22.4284C25.8381 20.9732 26.3293 19.3542 26.9115 17.5716C26.111 17.6808 25.547 17.7353 25.2196 17.7353C24.9285 17.7353 24.7101 17.699 24.5646 17.6262C24.4191 17.5171 24.2553 17.317 24.0734 17.0259C24.8375 16.9532 25.3833 16.8986 25.7108 16.8622C26.0746 16.7894 26.6022 16.6439 27.2936 16.4256L27.894 15.0068C28.4034 13.879 28.749 13.1696 28.931 12.8786C29.1129 12.5875 29.3494 12.442 29.6405 12.442L30.1317 12.5512C30.3864 12.5875 30.5138 12.6967 30.5138 12.8786C30.5138 13.0605 30.2955 13.6244 29.8588 14.5703L29.4222 15.5525L30.5138 15.2251C33.7886 14.0973 35.9354 13.5334 36.9542 13.5334C37.2817 13.5334 37.4636 13.588 37.5 13.6971C37.4272 13.879 37.1907 14.0427 36.7905 14.1883C36.3902 14.3338 36.0263 14.4429 35.6989 14.5157C35.4078 14.5884 35.2076 14.643 35.0985 14.6794C33.643 15.116 32.8789 15.3524 32.8061 15.3888C31.6782 15.8254 30.7867 16.171 30.1317 16.4256C29.4768 16.6803 29.0947 16.8622 28.9856 16.9713C28.8764 17.0805 28.7672 17.2806 28.6581 17.5716C28.1851 18.8085 27.6756 20.4457 27.1298 22.4829C26.6204 24.5202 26.3657 26.1573 26.3657 27.3943C26.3657 28.0855 26.4749 28.5766 26.6932 28.8677C27.1662 28.5766 27.8212 27.7035 28.6581 26.2483C29.495 24.7931 29.9862 23.9382 30.1317 23.6835L30.2955 23.7381C30.1135 25.266 29.6223 26.703 28.8218 28.0491C28.0577 29.3952 27.2754 29.9227 26.4749 29.6316Z" fill="white"/>
  <path d="M29.9036 30.9959C29.8672 30.9959 29.849 30.9777 29.849 30.9413C29.3032 30.3593 29.0303 29.5407 29.0303 28.4857C29.0303 28.0491 29.1031 27.467 29.2486 26.7394C29.4306 25.9391 29.7763 24.8477 30.2857 23.4652C30.7951 22.0828 31.4318 20.8276 32.196 19.6999C32.9965 18.5357 33.8515 17.9536 34.7612 17.9536C34.8704 17.9536 35.0705 17.99 35.3616 18.0628C35.6163 18.1355 35.8164 18.281 35.962 18.4993C36.1439 18.6812 36.2349 18.8995 36.2349 19.1542C36.2349 19.4088 36.1621 19.6635 36.0165 19.9181C35.5435 20.7185 34.9795 21.4461 34.3246 22.101C33.706 22.7558 33.1966 23.0832 32.7963 23.0832C32.6508 23.0832 32.5052 23.0105 32.3597 22.8649C32.1414 22.6467 32.0322 22.5375 32.0322 22.5375C31.45 23.92 30.9952 25.0841 30.6677 26.03C30.3766 26.9395 30.2311 27.8308 30.2311 28.704C30.2311 29.3224 30.3402 29.8863 30.5586 30.3956C30.8133 30.9777 31.4318 30.7231 32.4143 29.6316C33.4331 28.5402 34.3246 27.4852 35.0887 26.4666C35.8528 25.4479 36.3258 24.8295 36.5078 24.6112C36.5805 25.266 36.3258 26.1573 35.7436 27.2851C35.1615 28.3765 34.4155 29.3588 33.5059 30.2319C32.5962 31.0687 31.7775 31.487 31.0498 31.487C30.6131 31.487 30.2311 31.3233 29.9036 30.9959ZM32.196 22.2647C32.2323 22.301 32.2869 22.3192 32.3597 22.3192C32.4689 22.3192 32.578 22.2829 32.6872 22.2101C32.8327 22.101 32.9237 22.0282 32.9601 21.9918C33.5423 21.5189 34.0153 20.9732 34.3791 20.3547C34.7794 19.7362 34.9795 19.2633 34.9795 18.9359C34.9795 18.6812 34.7976 18.6994 34.4337 18.9904C34.1062 19.2815 33.6332 19.9 33.0147 20.8458C32.9783 20.9186 32.8145 21.1733 32.5234 21.6098C32.2687 22.01 32.1596 22.2283 32.196 22.2647Z" fill="white"/>
</svg>